<svg xmlns="http://www.w3.org/2000/svg" width="960" height="640" viewBox="0 0 960 640" role="img" aria-label="RNAfold baseline: F1 vs length">
<style>
  .axis { stroke: #374151; stroke-width: 1.3; }
  .grid { stroke: #d1d5db; stroke-width: 1; }
  .tick { fill: #4b5563; font-family: Arial, Helvetica, sans-serif; font-size: 12px; }
  .title { fill: #111827; font-family: Arial, Helvetica, sans-serif; font-size: 20px; font-weight: 700; }
  .subtitle { fill: #4b5563; font-family: Arial, Helvetica, sans-serif; font-size: 12px; }
  .legend { fill: #111827; font-family: Arial, Helvetica, sans-serif; font-size: 12px; }
</style>
<rect x="0.00" y="0.00" width="960.00" height="640.00" fill="#ffffff" stroke="none" fill-opacity="1.000" />
<text x="480.00" y="28.00" font-family="Arial, Helvetica, sans-serif" font-size="20" font-weight="700" text-anchor="middle" fill="#111827">RNAfold baseline: F1 vs length</text>
<text x="90.00" y="42.00" font-family="Arial, Helvetica, sans-serif" font-size="14" font-weight="700" text-anchor="start" fill="#1f2937">F1 score vs sequence length</text>
<text x="90.00" y="622.00" font-family="Arial, Helvetica, sans-serif" font-size="13" font-weight="normal" text-anchor="middle" fill="#1f2937">Sequence length</text>
<text x="18.00" y="310.00" font-family="Arial, Helvetica, sans-serif" font-size="13" font-weight="normal" text-anchor="middle" fill="#1f2937" transform="rotate(-90.00 18.00 310.00)">F1</text>
<line x1="90.00" y1="560.00" x2="930.00" y2="560.00" stroke="#e5e7eb" stroke-width="1.00" stroke-opacity="1.000" />
<text x="78.00" y="564.00" font-family="Arial, Helvetica, sans-serif" font-size="11" font-weight="normal" text-anchor="end" fill="#4b5563">0.00</text>
<line x1="90.00" y1="435.00" x2="930.00" y2="435.00" stroke="#e5e7eb" stroke-width="1.00" stroke-opacity="1.000" />
<text x="78.00" y="439.00" font-family="Arial, Helvetica, sans-serif" font-size="11" font-weight="normal" text-anchor="end" fill="#4b5563">0.25</text>
<line x1="90.00" y1="310.00" x2="930.00" y2="310.00" stroke="#e5e7eb" stroke-width="1.00" stroke-opacity="1.000" />
<text x="78.00" y="314.00" font-family="Arial, Helvetica, sans-serif" font-size="11" font-weight="normal" text-anchor="end" fill="#4b5563">0.50</text>
<line x1="90.00" y1="185.00" x2="930.00" y2="185.00" stroke="#e5e7eb" stroke-width="1.00" stroke-opacity="1.000" />
<text x="78.00" y="189.00" font-family="Arial, Helvetica, sans-serif" font-size="11" font-weight="normal" text-anchor="end" fill="#4b5563">0.75</text>
<line x1="90.00" y1="60.00" x2="930.00" y2="60.00" stroke="#e5e7eb" stroke-width="1.00" stroke-opacity="1.000" />
<text x="78.00" y="64.00" font-family="Arial, Helvetica, sans-serif" font-size="11" font-weight="normal" text-anchor="end" fill="#4b5563">1.00</text>
<line x1="90.00" y1="60.00" x2="90.00" y2="560.00" stroke="#f3f4f6" stroke-width="1.00" stroke-opacity="1.000" />
<text x="90.00" y="578.00" font-family="Arial, Helvetica, sans-serif" font-size="11" font-weight="normal" text-anchor="middle" fill="#4b5563">189</text>
<line x1="258.00" y1="60.00" x2="258.00" y2="560.00" stroke="#f3f4f6" stroke-width="1.00" stroke-opacity="1.000" />
<text x="258.00" y="578.00" font-family="Arial, Helvetica, sans-serif" font-size="11" font-weight="normal" text-anchor="middle" fill="#4b5563">464</text>
<line x1="426.00" y1="60.00" x2="426.00" y2="560.00" stroke="#f3f4f6" stroke-width="1.00" stroke-opacity="1.000" />
<text x="426.00" y="578.00" font-family="Arial, Helvetica, sans-serif" font-size="11" font-weight="normal" text-anchor="middle" fill="#4b5563">738</text>
<line x1="594.00" y1="60.00" x2="594.00" y2="560.00" stroke="#f3f4f6" stroke-width="1.00" stroke-opacity="1.000" />
<text x="594.00" y="578.00" font-family="Arial, Helvetica, sans-serif" font-size="11" font-weight="normal" text-anchor="middle" fill="#4b5563">1013</text>
<line x1="762.00" y1="60.00" x2="762.00" y2="560.00" stroke="#f3f4f6" stroke-width="1.00" stroke-opacity="1.000" />
<text x="762.00" y="578.00" font-family="Arial, Helvetica, sans-serif" font-size="11" font-weight="normal" text-anchor="middle" fill="#4b5563">1287</text>
<line x1="930.00" y1="60.00" x2="930.00" y2="560.00" stroke="#f3f4f6" stroke-width="1.00" stroke-opacity="1.000" />
<text x="930.00" y="578.00" font-family="Arial, Helvetica, sans-serif" font-size="11" font-weight="normal" text-anchor="middle" fill="#4b5563">1562</text>
<line x1="90.00" y1="60.00" x2="90.00" y2="560.00" stroke="#374151" stroke-width="1.50" stroke-opacity="1.000" />
<line x1="90.00" y1="560.00" x2="930.00" y2="560.00" stroke="#374151" stroke-width="1.50" stroke-opacity="1.000" />
<circle cx="455.86" cy="310.55" r="4.30" fill="#2563eb" stroke="none" fill-opacity="0.720" />
<circle cx="433.83" cy="338.02" r="4.30" fill="#2563eb" stroke="none" fill-opacity="0.720" />
<circle cx="409.36" cy="302.15" r="4.30" fill="#2563eb" stroke="none" fill-opacity="0.720" />
<circle cx="185.44" cy="164.65" r="4.30" fill="#2563eb" stroke="none" fill-opacity="0.720" />
<circle cx="696.29" cy="290.29" r="4.30" fill="#2563eb" stroke="none" fill-opacity="0.720" />
<circle cx="447.29" cy="306.72" r="4.30" fill="#2563eb" stroke="none" fill-opacity="0.720" />
<circle cx="881.67" cy="360.88" r="4.30" fill="#2563eb" stroke="none" fill-opacity="0.720" />
<circle cx="312.08" cy="279.51" r="4.30" fill="#2563eb" stroke="none" fill-opacity="0.720" />
<circle cx="302.29" cy="202.86" r="4.30" fill="#2563eb" stroke="none" fill-opacity="0.720" />
<circle cx="533.55" cy="253.24" r="4.30" fill="#2563eb" stroke="none" fill-opacity="0.720" />
<circle cx="878.61" cy="296.79" r="4.30" fill="#2563eb" stroke="none" fill-opacity="0.720" />
<circle cx="165.25" cy="209.48" r="4.30" fill="#2563eb" stroke="none" fill-opacity="0.720" />
<circle cx="529.27" cy="345.16" r="4.30" fill="#2563eb" stroke="none" fill-opacity="0.720" />
<circle cx="333.50" cy="228.60" r="4.30" fill="#2563eb" stroke="none" fill-opacity="0.720" />
<circle cx="90.00" cy="237.78" r="4.30" fill="#2563eb" stroke="none" fill-opacity="0.720" />
<circle cx="520.09" cy="366.58" r="4.30" fill="#2563eb" stroke="none" fill-opacity="0.720" />
<circle cx="187.89" cy="202.20" r="4.30" fill="#2563eb" stroke="none" fill-opacity="0.720" />
<circle cx="374.49" cy="362.60" r="4.30" fill="#2563eb" stroke="none" fill-opacity="0.720" />
<circle cx="616.15" cy="309.23" r="4.30" fill="#2563eb" stroke="none" fill-opacity="0.720" />
<circle cx="594.12" cy="276.56" r="4.30" fill="#2563eb" stroke="none" fill-opacity="0.720" />
<circle cx="930.00" cy="311.50" r="4.30" fill="#2563eb" stroke="none" fill-opacity="0.720" />
<circle cx="328.60" cy="347.88" r="4.30" fill="#2563eb" stroke="none" fill-opacity="0.720" />
<circle cx="597.18" cy="346.52" r="4.30" fill="#2563eb" stroke="none" fill-opacity="0.720" />
<circle cx="342.06" cy="317.49" r="4.30" fill="#2563eb" stroke="none" fill-opacity="0.720" />
<circle cx="443.01" cy="251.14" r="4.30" fill="#2563eb" stroke="none" fill-opacity="0.720" />
<polyline points="175.35,205.84 331.05,298.50 443.01,306.72 533.55,345.16 656.22,299.76 881.67,311.50" fill="none" stroke="#dc2626" stroke-width="2.40" stroke-opacity="0.900" />
<circle cx="175.35" cy="205.84" r="5.20" fill="#dc2626" stroke="none" fill-opacity="1.000" />
<circle cx="331.05" cy="298.50" r="5.20" fill="#dc2626" stroke="none" fill-opacity="1.000" />
<circle cx="443.01" cy="306.72" r="5.20" fill="#dc2626" stroke="none" fill-opacity="1.000" />
<circle cx="533.55" cy="345.16" r="5.20" fill="#dc2626" stroke="none" fill-opacity="1.000" />
<circle cx="656.22" cy="299.76" r="5.20" fill="#dc2626" stroke="none" fill-opacity="1.000" />
<circle cx="881.67" cy="311.50" r="5.20" fill="#dc2626" stroke="none" fill-opacity="1.000" />
<text x="106.00" y="76.00" font-family="Arial, Helvetica, sans-serif" font-size="12" font-weight="normal" text-anchor="start" fill="#4b5563">n=25</text>
</svg>